<svg width="17" height="17" viewBox="0 0 17 17" fill="none" xmlns="http://www.w3.org/2000/svg">
<path d="M1 5.78292C1 5.52018 1 5.38881 1.01096 5.27816C1.1167 4.21095 1.96095 3.3667 3.02816 3.26096C3.13881 3.25 3.27727 3.25 3.55419 3.25C3.66089 3.25 3.71424 3.25 3.75954 3.24726C4.33796 3.21223 4.84446 2.84716 5.06061 2.3095C5.07754 2.26739 5.09336 2.21993 5.125 2.125C5.15664 2.03007 5.17246 1.98261 5.18939 1.9405C5.40554 1.40284 5.91204 1.03777 6.49046 1.00274C6.53576 1 6.58579 1 6.68585 1H10.3141C10.4142 1 10.4642 1 10.5095 1.00274C11.088 1.03777 11.5945 1.40284 11.8106 1.9405C11.8275 1.98261 11.8434 2.03007 11.875 2.125C11.9066 2.21993 11.9225 2.26739 11.9394 2.3095C12.1555 2.84716 12.662 3.21223 13.2405 3.24726C13.2858 3.25 13.3391 3.25 13.4458 3.25C13.7227 3.25 13.8612 3.25 13.9718 3.26096C15.039 3.3667 15.8833 4.21095 15.989 5.27816C16 5.38881 16 5.52018 16 5.78292V11.65C16 12.9101 16 13.5402 15.7548 14.0215C15.539 14.4448 15.1948 14.789 14.7715 15.0048C14.2902 15.25 13.6601 15.25 12.4 15.25H4.6C3.33988 15.25 2.70982 15.25 2.22852 15.0048C1.80516 14.789 1.46095 14.4448 1.24524 14.0215C1 13.5402 1 12.9101 1 11.65V5.78292Z" stroke="#FFFCFC" stroke-width="2" stroke-linecap="round" stroke-linejoin="round"/>
<path d="M8.5 11.875C10.1569 11.875 11.5 10.5319 11.5 8.875C11.5 7.21815 10.1569 5.875 8.5 5.875C6.84315 5.875 5.5 7.21815 5.5 8.875C5.5 10.5319 6.84315 11.875 8.5 11.875Z" stroke="#FFFCFC" stroke-width="2" stroke-linecap="round" stroke-linejoin="round"/>
</svg>
