<svg width="64" height="32" viewBox="0 0 64 32" fill="none" xmlns="http://www.w3.org/2000/svg">
<path d="M40 16.5V10.8C40 9.11984 40 8.27976 39.673 7.63803C39.3854 7.07354 38.9265 6.6146 38.362 6.32698C37.7202 6 36.8802 6 35.2 6H28.8C27.1198 6 26.2798 6 25.638 6.32698C25.0735 6.6146 24.6146 7.07354 24.327 7.63803C24 8.27976 24 9.11984 24 10.8V21.2C24 22.8802 24 23.7202 24.327 24.362C24.6146 24.9265 25.0735 25.3854 25.638 25.673C26.2798 26 27.1198 26 28.8 26H32M34 15H28M30 19H28M36 11H28M34.5 23L36.5 25L41 20.5" stroke="#C6C6C6" stroke-width="2" stroke-linecap="round" stroke-linejoin="round"/>
</svg>
