<?xml version="1.0" encoding="UTF-8"?>
<svg xmlns="http://www.w3.org/2000/svg" version="1.1" viewBox="0 0 2000 2000">
  <!-- Generator: Adobe Illustrator 28.7.7, SVG Export Plug-In . SVG Version: 1.2.0 Build 194)  -->
  <g>
    <g id="Layer_1">
      <rect width="2000" height="2000" style="fill: #fff;"/>
      <g>
        <path d="M1562.161,1146.645l-7.921,11.202c-1.069,1.5-3.441,2.694-5.198,2.141l-13.769-4.336c-3.928-1.237-7.144,3.275-4.694,6.585l8.591,11.602c1.096,1.48,1.114,3.498.045,4.997l-8.379,11.755c-2.39,3.353.907,7.807,4.812,6.499l13.689-4.585c1.746-.585,3.671.021,4.767,1.501l8.591,11.602c2.451,3.31,7.705,1.55,7.668-2.568l-.131-14.436c-.017-1.842,1.154-3.485,2.901-4.07l13.689-4.585c3.905-1.308,3.855-6.849-.073-8.086l-13.769-4.337c-1.757-.553-2.957-2.175-2.974-4.016l-.131-14.436c-.037-4.118-5.323-5.783-7.713-2.429Z" style="fill: #ffa708;"/>
        <path d="M1045.321,505.535l-7.921,11.202c-1.069,1.5-3.441,2.694-5.198,2.141l-13.77-4.337c-3.928-1.237-7.144,3.275-4.694,6.585l8.591,11.602c1.096,1.48,1.114,3.498.045,4.998l-8.379,11.755c-2.39,3.354.907,7.807,4.812,6.499l13.689-4.585c1.746-.585,3.671.021,4.767,1.501l8.591,11.602c2.451,3.31,7.705,1.55,7.668-2.568l-.131-14.436c-.017-1.842,1.154-3.485,2.901-4.07l13.689-4.585c3.905-1.308,3.855-6.849-.073-8.086l-13.769-4.337c-1.757-.553-2.957-2.175-2.974-4.016l-.131-14.435c-.037-4.118-5.323-5.783-7.713-2.429Z" style="fill: #ffa708;"/>
        <path d="M1115.959,1377.034l-5.004,7.077c-.675.947-2.174,1.702-3.284,1.353l-8.699-2.74c-2.482-.781-4.513,2.069-2.965,4.16l5.427,7.33c.692.935.704,2.21.029,3.157l-5.294,7.427c-1.51,2.119.573,4.932,3.04,4.106l8.648-2.897c1.103-.37,2.319.013,3.012.948l5.427,7.329c1.548,2.091,4.868.979,4.844-1.622l-.083-9.12c-.011-1.164.729-2.201,1.833-2.571l8.648-2.897c2.467-.826,2.435-4.327-.046-5.108l-8.699-2.74c-1.11-.35-1.868-1.374-1.879-2.537l-.083-9.12c-.024-2.602-3.363-3.653-4.873-1.535Z" style="fill: #ffa708;"/>
        <path d="M744.341,717.01l-5.004,7.077c-.675.947-2.174,1.702-3.284,1.353l-8.699-2.74c-2.482-.782-4.513,2.069-2.965,4.16l5.427,7.33c.692.935.704,2.21.029,3.157l-5.294,7.427c-1.51,2.119.573,4.932,3.04,4.106l8.648-2.897c1.103-.37,2.319.013,3.011.948l5.427,7.33c1.548,2.091,4.868.979,4.844-1.623l-.082-9.12c-.011-1.164.729-2.201,1.833-2.571l8.648-2.897c2.467-.826,2.435-4.327-.046-5.108l-8.699-2.74c-1.11-.35-1.868-1.374-1.879-2.537l-.083-9.12c-.024-2.602-3.363-3.653-4.873-1.535Z" style="fill: #ffa708;"/>
        <path d="M1299.89,1392.943l-5.004,7.077c-.675.948-2.174,1.702-3.284,1.353l-8.699-2.74c-2.482-.782-4.514,2.069-2.965,4.16l5.427,7.33c.692.935.704,2.21.029,3.157l-5.294,7.427c-1.51,2.119.573,4.932,3.04,4.106l8.648-2.897c1.103-.37,2.319.013,3.012.949l5.427,7.329c1.548,2.091,4.868.979,4.844-1.623l-.083-9.12c-.011-1.163.729-2.201,1.833-2.571l8.648-2.897c2.467-.826,2.435-4.327-.046-5.109l-8.699-2.74c-1.11-.35-1.868-1.374-1.879-2.537l-.083-9.12c-.023-2.602-3.362-3.653-4.873-1.535Z" style="fill: #ffa708;"/>
        <path d="M970.247,1072.338l-7.921,11.202c-1.069,1.5-3.441,2.694-5.198,2.141l-13.769-4.337c-3.928-1.237-7.144,3.275-4.694,6.585l8.591,11.602c1.096,1.48,1.114,3.498.045,4.997l-8.379,11.755c-2.39,3.353.907,7.807,4.812,6.499l13.689-4.585c1.746-.585,3.671.021,4.767,1.501l8.591,11.602c2.451,3.31,7.705,1.55,7.668-2.568l-.131-14.436c-.017-1.842,1.154-3.485,2.901-4.07l13.689-4.585c3.905-1.308,3.855-6.849-.073-8.086l-13.769-4.337c-1.757-.553-2.957-2.175-2.974-4.016l-.131-14.436c-.037-4.118-5.322-5.783-7.713-2.429Z" style="fill: #ffa708;"/>
        <path d="M1410.402,865.186l-7.921,11.202c-1.069,1.5-3.441,2.694-5.198,2.141l-13.769-4.337c-3.928-1.237-7.144,3.275-4.694,6.585l8.591,11.602c1.096,1.48,1.114,3.498.045,4.997l-8.379,11.755c-2.39,3.354.907,7.807,4.812,6.499l13.689-4.585c1.746-.585,3.671.021,4.767,1.501l8.591,11.602c2.451,3.31,7.705,1.55,7.668-2.568l-.131-14.436c-.017-1.842,1.154-3.485,2.901-4.07l13.689-4.585c3.905-1.308,3.855-6.849-.073-8.086l-13.769-4.337c-1.757-.553-2.957-2.175-2.974-4.016l-.131-14.435c-.037-4.118-5.322-5.783-7.713-2.429Z" style="fill: #ffa708;"/>
        <circle cx="945.121" cy="1440.727" r="25.349" transform="translate(-180.377 136.043) rotate(-7.518)" style="fill: #863fbf;"/>
        <circle cx="1407.965" cy="1235.701" r="25.349" transform="translate(-246.242 356.541) rotate(-13.283)" style="fill: #1fa78e;"/>
        <circle cx="1342.975" cy="735.615" r="25.349" transform="translate(-100.491 224.619) rotate(-9.217)" style="fill: #1fa78e;"/>
        <circle cx="672.588" cy="835.014" r="15.908" style="fill: #863fbf;"/>
        <circle cx="712.435" cy="493.004" r="15.908" style="fill: #863fbf;"/>
        <polygon points="545.435 715.878 581.314 748.134 541.157 763.935 545.435 715.878" style="fill: #e04949;"/>
        <polygon points="1233.012 806.811 1245.644 853.375 1203.34 844.855 1233.012 806.811" style="fill: #e04949;"/>
        <polygon points="1444.423 1034.103 1480.302 1066.359 1440.146 1082.16 1444.423 1034.103" style="fill: #e04949;"/>
        <path d="M1014.592,1300.966c-21.522-24.289-66.58-73.196-117.128-127.812l-.007-.007c-18.806-20.325-38.365-41.441-57.756-62.365-47.466-51.224-93.888-101.354-125.611-136.076-27.269-20.087-46.03-29.76-51.192-25.023-.451.94-.901,1.879-1.345,2.825-7.878,16.553-15.723,33.499-23.549,50.761l-.006.006c-24.025,52.949-47.916,108.903-72.07,166.126l-.006.006c-7.311,17.339-14.648,34.78-22.024,52.299l-.006.006c-14.526,34.49-29.181,69.238-44.067,103.896-7.878,18.317-15.807,36.608-23.807,54.815-20.891,47.472-42.284,94.39-64.431,139.796-.431.895-.869,1.796-1.307,2.684,27.836-8.515,56.875-17.963,86.77-28.099,13.406-4.55,26.986-9.236,40.701-14.043,30.828-10.8,62.345-22.198,94.172-33.943,13.29-4.898,26.625-9.867,39.993-14.867,21.953-8.232,43.99-16.572,65.982-24.946,13.387-5.11,26.754-10.227,40.07-15.343,30.931-11.868,61.599-23.717,91.668-35.314,14.236-5.496,28.344-10.941,42.284-16.296,33.557-12.911,66.123-25.371,97.177-37.026,1.834-.689,3.669-1.377,5.496-2.06Z" style="fill: #1fa78e;"/>
        <g>
          <path d="M537.75,1480.76c-.714-6.944-1.512-13.882-2.394-20.827-2.034-15.858-4.563-31.697-7.826-47.446-6.61-31.839-15.871-60.885-27.707-86.879-7.878,18.317-15.807,36.608-23.807,54.815,4.068,12.846,7.569,26.375,10.51,40.566,3.984,19.199,6.822,38.822,8.985,58.58.553,5.072,1.062,10.15,1.538,15.234,13.406-4.55,26.986-9.236,40.701-14.043Z" style="fill: #fbeacc;"/>
          <path d="M671.914,1431.95c-2.15-12.318-5.007-24.984-8.547-37.959-6.339-23.253-14.874-47.491-25.538-72.482-11.636-27.263-24.875-54.082-37.683-80.019-12.08-24.45-23.794-48.173-34.227-72.083-7.311,17.339-14.648,34.78-22.024,52.299l-.006.006c6.172,12.917,12.473,25.68,18.709,38.313,12.557,25.429,25.538,51.72,36.717,77.921,11.347,26.587,20.061,52.087,26.04,76.189,2.787,11.205,4.975,22.108,6.565,32.682,13.29-4.898,26.626-9.866,39.993-14.867Z" style="fill: #fbeacc;"/>
          <path d="M777.967,1391.661c-2.825-19.057-5.915-38.069-9.261-57.029-23.137-131.262-58.509-260.059-105.801-384.969-8.335,17.461-16.624,35.353-24.901,53.605l-.006.007c40.997,115.114,71.793,233.427,92.092,353.805,2.806,16.605,5.406,33.248,7.807,49.924,13.387-5.11,26.754-10.227,40.071-15.343Z" style="fill: #fbeacc;"/>
          <path d="M911.919,1340.051c.804-55.948-4.048-111.928-14.455-166.898l-.006-.006c-18.806-20.325-38.365-41.441-57.756-62.365,22.796,79.703,32.894,162.785,29.934,245.565,14.236-5.496,28.344-10.941,42.284-16.296Z" style="fill: #fbeacc;"/>
        </g>
        <path d="M1019.251,1299.505c21.688-21.688-39.562-118.081-136.791-215.309-55.884-55.884-111.491-99.88-152.795-123.077-30.316-17.04-52.933-22.858-62.293-13.921-.078.065-.149.136-.221.208-1.225,1.225-2.188,2.69-2.894,4.387-11.743,28.206,47.959,119.197,139.684,210.923,87.465,87.465,174.254,145.821,206.597,140.856,3.614-.55,6.535-1.888,8.712-4.065Z" style="fill: #0a806a;"/>
        <path d="M1425.367,1191.46c-4.671-6.024-9.452-11.952-14.259-17.878-4.877-5.863-9.797-11.704-14.921-17.393-5.097-5.713-10.381-11.281-15.912-16.639-2.715-2.731-5.611-5.283-8.446-7.906l-4.39-3.794c-1.45-1.283-2.959-2.5-4.476-3.71-6.003-4.918-12.387-9.417-18.997-13.609l-5.011-3.076-5.165-2.838c-3.431-1.916-7.056-3.615-10.688-5.2-3.637-1.602-7.365-2.989-11.135-4.263-3.778-1.252-7.615-2.328-11.489-3.282-7.764-1.827-15.701-3.105-23.744-3.508-2.007-.145-4.026-.144-6.041-.201-2.019.027-4.04.003-6.063.121-4.047.148-8.098.549-12.135,1.144-8.073,1.189-16.072,3.36-23.752,6.505-3.844,1.565-7.57,3.452-11.204,5.515-3.621,2.095-7.07,4.496-10.386,7.075-6.558,5.216-12.567,11.496-17.207,19.045-2.293,3.791-4.243,7.912-5.587,12.334-1.35,4.414-2.043,9.138-2.008,13.892.121,9.535,3.401,18.717,8.404,26.196,5.001,7.546,11.598,13.63,18.971,18.335,3.704,2.335,7.606,4.358,11.714,5.945,2.04.823,4.153,1.486,6.28,2.106,2.163.574,4.28,1.078,6.443,1.435,4.317.755,8.755,1.072,13.269.879,4.506-.174,9.108-.922,13.623-2.388,9.023-2.797,17.603-9.37,22.452-17.709,2.454-4.14,4.175-8.569,5.282-13.056,1.053-4.499,1.467-9.047,1.404-13.556-.034-4.515-.763-8.973-1.875-13.329-.315-1.082-.557-2.181-.947-3.245l-1.156-3.19c-.91-2.073-1.843-4.205-2.932-6.067-4.212-7.716-9.966-14.265-16.196-19.821-3.148-2.746-6.414-5.281-9.786-7.592-3.367-2.318-6.83-4.399-10.32-6.371-3.498-1.957-7.02-3.8-10.606-5.433l-10.771-4.838c-3.658-1.442-7.36-2.773-11.033-4.159l-2.76-1.024-2.815-.865-5.626-1.725c-1.88-.557-3.738-1.185-5.633-1.68l-5.715-1.374-5.711-1.36-1.427-.339c-.478-.101-.962-.176-1.443-.265l-2.889-.515-5.772-1.026c-1.925-.329-3.837-.729-5.785-.913l-11.627-1.346c-15.547-1.297-31.158-1.091-46.568.551l-5.768.704c-1.92.239-3.844.432-5.745.821l-11.409,2.07-11.251,2.741c-.933.24-1.876.435-2.8.711l-2.763.858-5.511,1.731-2.751.865c-.915.29-1.837.557-2.73.922l-5.39,2.049-5.376,2.046c-.902.32-1.778.713-2.65,1.114l-2.62,1.188-5.216,2.405-2.602,1.2c-.873.386-1.695.888-2.544,1.325-3.374,1.802-6.726,3.625-10.059,5.459,3.565-1.372,7.109-2.754,10.631-4.158.888-.334,1.748-.731,2.657-1.011l2.708-.884,5.404-1.763,2.69-.896c.893-.308,1.788-.606,2.709-.832l5.474-1.477,5.46-1.474c.902-.268,1.832-.439,2.755-.633l2.769-.574,5.527-1.147,2.756-.582c.919-.19,1.857-.299,2.783-.452l11.127-1.703,11.183-1.105c1.855-.233,3.73-.271,5.598-.355l5.6-.24c14.928-.493,29.84.332,44.531,2.41,14.678,2.218,29.087,5.78,43.024,10.566l5.21,1.84,2.603.918,2.544,1.073c3.383,1.448,6.789,2.834,10.146,4.32l9.881,4.858c3.286,1.624,6.45,3.422,9.529,5.28,6.167,3.716,11.907,7.874,16.965,12.503,4.987,4.676,9.266,9.861,12.205,15.6.806,1.44,1.33,2.83,1.935,4.241l.745,2.188c.265.722.399,1.496.613,2.239.712,3.01,1.204,6.123,1.162,9.222-.009,3.091-.337,6.158-1.057,9.063-.77,2.882-1.892,5.579-3.345,7.964-1.419,2.42-3.283,4.398-5.38,6.026-.527.406-1.027.844-1.626,1.177-.558.382-1.167.697-1.772,1.02-.598.334-1.257.583-1.882.881-.672.226-1.299.532-2,.716-2.725.869-5.695,1.371-8.788,1.468-3.086.124-6.275-.119-9.448-.675-1.592-.249-3.178-.63-4.693-1.016-1.522-.445-3.049-.902-4.537-1.501-2.996-1.134-5.881-2.62-8.618-4.323-2.737-1.708-5.281-3.704-7.612-5.877-2.295-2.203-4.378-4.595-6.108-7.148-3.511-5.094-5.528-10.831-5.701-16.54-.051-2.848.299-5.744,1.132-8.615.844-2.864,2.054-5.719,3.635-8.47,3.204-5.508,7.692-10.545,12.929-14.909,2.643-2.146,5.397-4.165,8.297-5.989,2.924-1.782,5.938-3.449,9.097-4.856,6.305-2.84,13.031-4.884,19.958-6.193,3.463-.66,6.974-1.163,10.521-1.44,1.769-.183,3.553-.231,5.334-.334,1.785-.02,3.572-.104,5.363-.046,7.163.085,14.361.812,21.477,2.119,7.108,1.351,14.135,3.264,20.971,5.743,3.42,1.256,6.784,2.583,10.097,4.184l4.99,2.36,4.898,2.575c.813.438,1.647.839,2.444,1.307l2.399,1.397c1.59.949,3.227,1.823,4.784,2.835l4.702,2.995c1.572.994,3.076,2.099,4.627,3.134,1.545,1.045,3.085,2.1,4.578,3.228l4.521,3.328c2.943,2.321,5.932,4.591,8.816,7.01,5.847,4.738,11.465,9.788,17.071,14.881,5.607,5.093,11.035,10.404,16.473,15.717,5.468,5.289,10.82,10.705,16.277,16.029Z" style="fill: #ffa708;"/>
        <path d="M761.753,1058.131c3.987-6.745,8.101-13.402,12.099-20.13,2.033-3.342,4.071-6.678,6.071-10.036,2.001-3.357,4.046-6.687,6.01-10.063,7.971-13.436,15.732-26.957,23.082-40.65,7.406-13.661,14.247-27.578,20.404-41.719l2.308-5.302c.396-.879.76-1.77,1.103-2.67l1.067-2.681,2.136-5.359c.691-1.793,1.474-3.553,2.078-5.375l3.835-10.848c.668-1.797,1.143-3.654,1.734-5.473l1.701-5.478c1.211-3.63,2.094-7.344,3.062-11.032l1.439-5.533c.26-.918.441-1.852.632-2.784l.576-2.795,1.165-5.583c.377-1.862.841-3.709,1.085-5.592l1.753-11.243c.165-.956.255-1.831.359-2.719.084-.891.183-1.781.241-2.673.144-1.784.213-3.569.24-5.347.045-3.558-.128-7.086-.548-10.515-.859-6.814-2.871-13.343-6.254-17.821-1.689-2.228-3.628-3.942-5.877-5.113-1.112-.573-2.354-1.111-3.577-1.398-1.235-.303-2.506-.543-3.868-.562-5.415-.225-11.738,1.874-17.533,5.183-11.898,6.759-21.851,17.385-27.754,29.817-.761,1.543-1.424,3.128-2.078,4.715l-.891,2.412c-.279.796-.5,1.57-.759,2.354-.926,3.152-1.514,6.405-1.732,9.593-.456,6.386.75,12.496,3.627,16.717.36.531.779,1.002,1.143,1.527.453.437.866.923,1.315,1.356.495.368.916.823,1.434,1.167l.777.516.383.269.424.216c2.205,1.223,4.828,1.995,7.656,2.259,5.66.543,12.019-.994,17.135-4.063.622-.423,1.249-.76,1.885-1.232.626-.489,1.296-.91,1.898-1.444,1.237-1.012,2.441-2.091,3.574-3.278,2.284-2.35,4.366-5.019,6.258-7.913,3.774-5.803,6.839-12.431,9.461-19.413,2.646-6.992,4.793-14.178,6.588-21.462,1.837-7.278,3.105-14.708,4.015-22.186,3.618-29.933.443-60.895-9.11-89.982-2.312-7.305-5.187-14.427-8.324-21.443-1.537-3.528-3.29-6.95-5.011-10.401-1.847-3.377-3.634-6.802-5.634-10.107-3.949-6.635-8.211-13.129-12.974-19.268-4.686-6.204-9.8-12.098-15.181-17.796,6.098,4.919,11.82,10.325,17.281,16.015l3.993,4.368,3.824,4.524c1.305,1.49,2.462,3.09,3.699,4.637l1.829,2.341,1.743,2.404c1.142,1.617,2.366,3.186,3.444,4.85l3.287,4.965c2.068,3.387,4.174,6.765,6.069,10.264,3.842,6.967,7.353,14.147,10.35,21.552,12.154,29.555,17.423,62.163,14.96,94.477-.645,8.072-1.686,16.139-3.346,24.103-1.652,7.961-3.763,15.846-6.398,23.573-2.632,7.725-5.839,15.533-10.445,22.948-4.61,7.402-10.576,14.409-18.677,19.603-4.087,2.584-8.524,4.477-13.175,5.656-4.647,1.182-9.52,1.686-14.484,1.302-4.95-.384-10.028-1.697-14.701-4.199l-.877-.459-.844-.534-1.676-1.089c-1.105-.743-2.107-1.647-3.144-2.489-.98-.896-1.881-1.863-2.802-2.814-.821-1.028-1.679-2.044-2.43-3.119-2.996-4.332-4.872-9.182-5.905-13.954-1.034-4.79-1.264-9.541-.978-14.148.296-4.611,1.101-9.098,2.354-13.453.338-1.076.661-2.181,1.023-3.231l1.126-3.093c.823-2.031,1.653-4.062,2.629-6.021,1.914-3.936,4.119-7.719,6.586-11.32,2.486-3.587,5.242-6.98,8.224-10.162,5.958-6.379,12.901-11.816,20.59-16.102,3.914-2.152,8.092-3.985,12.604-5.299,4.503-1.302,9.39-2.081,14.507-1.814,2.548.101,5.151.561,7.688,1.253,2.565.69,4.938,1.715,7.27,2.974,4.666,2.506,8.578,6.276,11.482,10.353,1.445,2.052,2.666,4.187,3.705,6.351,1.019,2.168,1.847,4.362,2.548,6.558,1.371,4.396,2.169,8.787,2.63,13.131.434,4.342.541,8.644.336,12.9-.1,2.128-.253,4.247-.49,6.354-.104,1.055-.252,2.105-.388,3.155-.155,1.049-.304,2.113-.502,3.079-2.598,15.916-6.808,31.465-11.967,46.589-5.14,15.147-11.617,29.733-18.761,43.878-1.794,3.534-3.549,7.087-5.495,10.531-1.914,3.461-3.763,6.958-5.746,10.373l-6.022,10.192c-2.02,3.386-4.145,6.703-6.235,10.041-8.469,13.277-17.3,26.272-26.576,38.919-2.289,3.183-4.652,6.31-6.973,9.466-2.325,3.154-4.661,6.296-7.035,9.411-4.763,6.221-9.51,12.445-14.364,18.594Z" style="fill: #e04949;"/>
        <path d="M1215.338,579.267c2.702,7.646,5.859,15.129,8.652,22.703,2.85,7.541,5.49,15.153,7.18,22.869,1.63,7.686,2.417,15.56.867,22.772-1.534,7.041-5.41,14.023-11.01,16.725l-1.082.515c-.373.154-.768.274-1.146.419l-.571.213-.605.161-1.207.324c-1.677.319-3.38.598-5.196.644-3.587.187-7.383-.142-11.224-.624-7.708-.984-15.639-2.648-24.026-3.661-4.197-.491-8.527-.842-13.034-.683-1.125.038-2.271.139-3.409.221-1.156.158-2.302.248-3.469.479-1.165.218-2.33.424-3.502.765-.577.16-1.188.301-1.737.483l-1.629.56c-8.722,2.961-16.551,8.155-22.905,14.719-3.206,3.267-5.976,6.952-8.363,10.881-2.369,3.94-4.362,8.145-5.777,12.588-1.411,4.435-2.267,9.133-2.581,13.689-.324,4.583-.159,9.116.309,13.513.955,8.808,3.021,17.074,5.146,24.964,2.119,7.891,4.275,15.482,5.572,22.849,1.288,7.357,1.693,14.442.436,20.955l-.236,1.22c-.084.405-.205.798-.304,1.198l-.306,1.195-.397,1.154c-.282.762-.486,1.55-.815,2.297l-.992,2.238c-1.465,2.93-3.254,5.737-5.397,8.348-2.2,2.572-4.643,5.001-7.337,7.219-2.746,2.168-5.68,4.157-8.783,5.926-3.138,1.715-6.395,3.257-9.77,4.547-3.395,1.245-6.831,2.317-10.399,3.121-7.086,1.642-14.339,2.332-21.298,1.75-6.937-.56-13.631-2.461-19.251-5.715-5.508-3.165-10.293-8.062-13.34-13.677-3.074-5.617-4.293-11.901-3.188-17.61.921-5.241,4.747-10.483,9.822-13.692,2.52-1.616,5.324-2.701,8.06-3.154,2.746-.449,5.394-.226,7.774.672l.884.37.903.503.92.488c.315.151.56.403.848.594.554.411,1.153.769,1.633,1.295.503.493,1.068.914,1.501,1.513,1.92,2.157,3.467,4.922,4.665,8.034,1.211,3.108,2.021,6.573,2.535,10.159.519,3.59.755,7.31.773,11.072.012,1.886-.047,3.766-.138,5.682l-.41,5.9c-.145,1.967-.238,3.94-.425,5.904l-.653,5.886c-.236,1.961-.392,3.934-.692,5.887l-.901,5.861-.45,2.934c-.143.979-.292,1.958-.496,2.926l-1.122,5.832c-3.095,15.537-7.455,30.871-13.053,45.793-5.566,14.938-12.4,29.446-20.309,43.416-.469.889-.974,1.756-1.501,2.609l-1.553,2.579-3.111,5.167c-2.138,3.405-4.417,6.72-6.613,10.105-2.285,3.318-4.658,6.58-6.992,9.885l-7.405,9.621c2.841-2.883,5.698-5.768,8.498-8.713,2.689-3.037,5.429-6.047,8.092-9.128,2.544-3.171,5.144-6.313,7.631-9.545l3.633-4.922,1.819-2.465c.616-.816,1.21-1.647,1.769-2.5,9.358-13.4,17.455-27.731,24.303-42.675,6.816-14.96,12.355-30.554,16.456-46.565l1.515-6.014c.537-1.999.868-4.042,1.305-6.064l1.238-6.084c.412-2.029.679-4.083,1.025-6.125l.981-6.139c.296-2.051.497-4.115.749-6.173l.709-6.184c.186-2.119.34-4.28.413-6.439.151-4.325.06-8.707-.4-13.148-.463-4.438-1.291-8.951-2.824-13.461-1.522-4.494-3.779-9.015-7.095-13.036-.765-1.041-1.742-1.946-2.67-2.881-.9-.965-1.972-1.76-3.025-2.577-.536-.393-1.038-.841-1.61-1.177l-1.711-1.022c-.577-.335-1.142-.676-1.735-.994l-1.885-.868c-5.128-2.162-10.81-2.752-16.066-2.062-5.285.673-10.192,2.556-14.553,5.18-4.36,2.639-8.213,6.063-11.341,10.181-3.115,4.104-5.516,8.99-6.63,14.296-1.098,5.064-1.15,10.318-.291,15.294.845,4.987,2.529,9.716,4.802,14.049,4.576,8.657,11.408,15.867,19.836,20.909,8.371,4.926,17.657,7.441,26.815,8.243,9.176.793,18.229-.065,26.899-2.049,4.322-.993,8.623-2.341,12.81-3.91,4.179-1.617,8.242-3.553,12.188-5.744,3.921-2.252,7.692-4.818,11.276-7.692,3.541-2.941,6.872-6.214,9.855-9.857,2.949-3.682,5.5-7.752,7.572-12.096l1.42-3.329c.46-1.115.786-2.288,1.176-3.432l.549-1.728.432-1.747c.137-.583.295-1.164.411-1.75l.323-1.762c.832-4.702,1.054-9.43.846-14.005-.198-4.582-.852-9.015-1.696-13.285-1.712-8.544-4.194-16.483-6.431-24.168-2.228-7.679-4.331-15.111-5.327-22.384-.502-3.631-.731-7.21-.593-10.706.131-3.521.669-6.842,1.549-10.166.905-3.313,2.278-6.525,3.951-9.584,1.689-3.049,3.688-5.971,6.056-8.573,2.351-2.615,4.98-4.981,7.822-7.05,2.834-2.089,5.959-3.733,9.192-5.043l1.216-.493c.403-.158.779-.252,1.169-.384.758-.274,1.581-.451,2.395-.65.807-.211,1.682-.309,2.521-.478.875-.1,1.741-.226,2.635-.299,3.575-.291,7.349-.253,11.204-.009,7.731.463,15.744,1.73,24.15,2.255,4.208.247,8.528.365,13.008-.154,2.226-.212,4.508-.704,6.765-1.315,2.256-.725,4.519-1.578,6.611-2.894,2.081-1.286,4.049-2.846,5.63-4.701.85-.886,1.52-1.882,2.21-2.862.678-.98,1.173-1.962,1.758-2.944,2.112-4.019,3.45-8.405,4.019-12.792.599-4.393.399-8.761-.163-12.977-.569-4.224-1.6-8.307-2.849-12.267-2.537-7.915-5.923-15.374-9.517-22.663-3.659-7.265-7.493-14.381-11.161-21.61Z" style="fill: #1fa78e;"/>
        <path d="M945.121,1233.707c24.303,3.22,48.222,6.549,71.645,11.609,23.414,4.998,46.308,11.601,68.255,20.446,21.907,8.843,42.882,19.978,62.324,33.571,19.476,13.574,37.276,29.65,53.299,48.204-10.543-22.212-26.776-41.806-45.721-57.984-19.012-16.188-40.848-29.065-64.028-38.384-23.173-9.324-47.585-15.181-72.138-18.022-24.573-2.786-49.329-2.74-73.636.559Z" style="fill: #4754a6;"/>
        <path d="M848.705,1101.789c5.902-5.65,11.535-11.328,17.149-17.074,5.596-5.757,11.07-11.656,16.334-17.847,5.253-6.198,10.227-12.753,14.741-19.736,1.133-1.744,2.207-3.534,3.258-5.338l3.049-5.493c1.88-3.74,3.707-7.514,5.297-11.387l1.19-2.906,1.064-2.953c.693-1.974,1.461-3.923,2.036-5.935.58-2.01,1.215-4.002,1.743-6.023.5-2.03,1.031-4.05,1.49-6.086,1.737-8.169,2.821-16.461,3.106-24.763.316-8.297-.157-16.602-1.475-24.736-1.33-8.127-3.36-16.111-6.489-23.66-.42,16.304-1.429,31.885-4.339,47.092-1.426,7.587-3.142,15.063-5.271,22.404-.595,1.818-1.118,3.652-1.671,5.477-.567,1.82-1.237,3.608-1.848,5.411-.568,1.819-1.287,3.584-1.948,5.368l-1.006,2.671-1.117,2.626c-2.868,7.058-6.162,13.886-9.857,20.606-3.702,6.73-7.756,13.383-11.917,20.099-8.272,13.43-17.239,27.073-23.519,42.182Z" style="fill: #4754a6;"/>
        <path d="M1135.706,960.845c17.839.058,35.213-.209,52.523.295,17.294.431,34.459,1.439,51.567,3.088,17.106,1.655,34.149,3.927,51.208,6.793,17.088,2.8,34.095,6.358,51.627,9.675-15.141-9.486-31.715-16.403-48.768-21.712-17.082-5.244-34.741-8.718-52.565-10.414-17.823-1.702-35.818-1.65-53.585.252-17.749,1.976-35.335,5.608-52.007,12.024Z" style="fill: #4754a6;"/>
        <path d="M925.33,696.416c5.161-18.441,5.416-38.212,2.757-57.347-2.727-19.187-8.468-37.869-16.212-55.509-7.742-17.644-17.434-34.244-28.218-49.897-10.858-15.628-22.65-30.43-35.792-44.274,7.639,17.507,16.628,34.074,25.196,50.662,8.634,16.551,17.013,33.035,24.413,49.839,7.381,16.785,13.747,33.946,18.53,51.636,4.845,17.698,7.909,35.868,9.325,54.89Z" style="fill: #4754a6;"/>
        <path d="M672.588,683.55c-2.045-17.219-7.635-33.932-15.239-49.637-7.675-15.691-17.56-30.36-29.171-43.494-11.604-13.139-24.962-24.742-39.6-34.274-14.659-9.466-30.572-17.048-47.421-21.16,14.043,10.109,27.452,20.125,39.999,31.059,12.569,10.869,24.312,22.468,35.241,34.797,10.921,12.336,21.002,25.409,30.26,39.21,9.328,13.784,17.628,28.321,25.931,43.498Z" style="fill: #4754a6;"/>
        <path d="M1279.398,1293.596c14.12,10.928,28.946,20.384,43.384,30.083,14.48,9.629,28.68,19.33,42.129,29.815,13.416,10.474,26.103,21.775,37.611,34.304,11.561,12.514,21.748,26.277,30.792,41.647-2.816-17.693-10.783-34.519-21.129-49.374-10.427-14.88-23.36-27.906-37.609-38.988-14.245-11.083-29.71-20.289-45.661-28.102-16.006-7.753-32.413-14.314-49.516-19.386Z" style="fill: #4754a6;"/>
      </g>
    </g>
  </g>
</svg>