<svg width="64" height="32" viewBox="0 0 64 32" fill="none" xmlns="http://www.w3.org/2000/svg">
<path d="M34 15H28M30 19H28M36 11H28M40 10.8V21.2C40 22.8802 40 23.7202 39.673 24.362C39.3854 24.9265 38.9265 25.3854 38.362 25.673C37.7202 26 36.8802 26 35.2 26H28.8C27.1198 26 26.2798 26 25.638 25.673C25.0735 25.3854 24.6146 24.9265 24.327 24.362C24 23.7202 24 22.8802 24 21.2V10.8C24 9.11984 24 8.27976 24.327 7.63803C24.6146 7.07354 25.0735 6.6146 25.638 6.32698C26.2798 6 27.1198 6 28.8 6H35.2C36.8802 6 37.7202 6 38.362 6.32698C38.9265 6.6146 39.3854 7.07354 39.673 7.63803C40 8.27976 40 9.11984 40 10.8Z" stroke="#C6C6C6" stroke-width="2" stroke-linecap="round" stroke-linejoin="round"/>
</svg>
